<?xml version="1.0" encoding="iso-8859-1"?>
<!-- Uploaded to: SVG Repo, www.svgrepo.com, Generator: SVG Repo Mixer Tools -->
<svg height="800px" width="800px" version="1.1" id="Capa_1" xmlns="http://www.w3.org/2000/svg" xmlns:xlink="http://www.w3.org/1999/xlink" 
	 viewBox="0 0 330.695 330.695" xml:space="preserve">
<g>
	<path style="fill:#FFFFFF;" d="M71.942,56.158c1.831,0,3.502,0.208,5.045,0.579c-2.896-3.707-7.25-5.579-13.045-5.579
		c-11.508,0-17.342,7.358-17.342,21.871c0,6.41,1.227,12.545,3.465,17.719h6.25c-1.111-3.956-1.715-8.267-1.715-12.719
		C54.6,63.517,60.434,56.158,71.942,56.158z"/>
	<path style="fill:#FFFFFF;" d="M178.709,17c3.536,0,7.026,0.194,10.448,0.548C182.093,15.892,174.505,15,166.709,15
		c-20.435,0-39.469,6.095-51.258,16.158l36.887,59.59H163.1l-35.648-57.59C139.24,23.095,158.274,17,178.709,17z"/>
	<path style="fill:#FFAB97;" d="M127.451,33.158l35.648,57.59h17.982l36.889-59.59c-7.294-6.226-17.363-10.926-28.817-13.61
		C185.733,17.194,182.244,17,178.709,17C158.274,17,139.24,23.095,127.451,33.158z"/>
	<polygon style="fill:#FFFFFF;" points="177.369,109.748 177.504,105.748 155.949,105.748 156.309,115.276 162.157,115.276 
		161.949,109.748 	"/>
	<path style="fill:none;" d="M65.859,315.403c-0.065,0.027-0.137,0.048-0.206,0.072C65.723,315.452,65.794,315.431,65.859,315.403z"
		/>
	<path style="fill:none;" d="M65.256,315.589c-0.066,0.015-0.133,0.029-0.202,0.04C65.123,315.618,65.19,315.603,65.256,315.589z"/>
	<path style="fill:none;" d="M66.538,314.978c-0.081,0.068-0.161,0.137-0.25,0.195C66.377,315.114,66.457,315.045,66.538,314.978z"
		/>
	<path style="fill:none;" d="M67.407,313.737c-0.125,0.305-0.276,0.572-0.452,0.805C67.132,314.31,67.282,314.042,67.407,313.737z"
		/>
	<path style="fill:none;" d="M66.682,314.85c0.087-0.085,0.171-0.174,0.248-0.272C66.853,314.677,66.768,314.765,66.682,314.85z"/>
	<path style="fill:#FFFFFF;" d="M66.955,314.542c0.176-0.232,0.327-0.5,0.452-0.805c0.001-0.004,0.003-0.008,0.005-0.012
		c-0.252-0.543-0.423-1.174-0.475-1.898c-0.006-0.094-6.834-181.551-6.834-181.551h-6c0,0,6.828,181.457,6.834,181.551
		c0.172,2.399,1.531,3.915,3.449,3.868c0.237-0.006,0.456-0.032,0.667-0.066c0.069-0.011,0.136-0.025,0.202-0.04
		c0.139-0.03,0.271-0.069,0.397-0.113c0.069-0.024,0.141-0.045,0.206-0.072c0.152-0.065,0.295-0.144,0.429-0.23
		c0.089-0.059,0.169-0.127,0.25-0.195c0.049-0.041,0.097-0.083,0.144-0.128c0.086-0.085,0.171-0.173,0.248-0.272
		C66.939,314.567,66.945,314.554,66.955,314.542z"/>
	<path style="fill:#FF8269;" d="M67.412,313.726c0.213-0.525,0.358-1.148,0.424-1.898c0.006-0.084,6.078-181.551,6.078-181.551
		H60.104c0,0,6.828,181.457,6.834,181.551C66.989,312.552,67.16,313.183,67.412,313.726z"/>
	<path style="fill:none;" d="M54.104,130.276c0,0,6.828,181.457,6.834,181.551c0.172,2.399,1.531,3.915,3.449,3.868
		c0.237-0.006,0.456-0.032,0.667-0.066c0.069-0.011,0.136-0.026,0.202-0.04c0.139-0.03,0.271-0.069,0.397-0.113
		c0.069-0.023,0.141-0.045,0.206-0.072c0.152-0.065,0.295-0.144,0.429-0.23c0.089-0.059,0.169-0.128,0.25-0.195
		c0.049-0.041,0.097-0.083,0.144-0.128c0.087-0.085,0.171-0.174,0.248-0.272c0.009-0.011,0.016-0.024,0.025-0.036
		c0.177-0.232,0.327-0.5,0.452-0.805c0.001-0.004,0.003-0.008,0.005-0.012c0.213-0.525,0.358-1.148,0.424-1.898
		c0.006-0.084,6.078-181.551,6.078-181.551H60.104H54.104z"/>
	<polygon style="fill:none;" points="74.601,109.748 74.734,105.748 74.601,109.748 	"/>
	<polygon style="fill:#FFFFFF;" points="59.18,109.748 74.601,109.748 74.734,105.748 53.18,105.748 53.539,115.276 59.388,115.276 
			"/>
	<polygon style="fill:#FF8269;" points="59.18,109.748 59.388,115.276 74.416,115.276 74.601,109.748 74.601,109.748 	"/>
	<path style="fill:none;" d="M54.104,130.276c0,0,6.828,181.457,6.834,181.551c0.172,2.399,1.531,3.915,3.449,3.868
		c0.237-0.006,0.456-0.032,0.667-0.066c0.069-0.011,0.136-0.026,0.202-0.04c0.139-0.03,0.271-0.069,0.397-0.113
		c0.069-0.023,0.141-0.045,0.206-0.072c0.152-0.065,0.295-0.144,0.429-0.23c0.089-0.059,0.169-0.128,0.25-0.195
		c0.049-0.041,0.097-0.083,0.144-0.128c0.087-0.085,0.171-0.174,0.248-0.272c0.009-0.011,0.016-0.024,0.025-0.036
		c0.177-0.232,0.327-0.5,0.452-0.805c0.001-0.004,0.003-0.008,0.005-0.012c0.213-0.525,0.358-1.148,0.424-1.898
		c0.006-0.084,6.078-181.551,6.078-181.551H60.104H54.104z"/>
	<polygon style="fill:none;" points="53.539,115.276 59.388,115.276 74.416,115.276 74.601,109.748 74.734,105.748 53.18,105.748 	
		"/>
	<path style="fill:#FFAB97;" d="M54.6,78.029c0,4.452,0.604,8.763,1.715,12.719h21.504c2.236-5.174,3.463-11.309,3.463-17.719
		c0-7.203-1.441-12.639-4.295-16.292c-1.543-0.371-3.214-0.579-5.045-0.579C60.434,56.158,54.6,63.517,54.6,78.029z"/>
	<path style="fill:#C03A3A;" d="M63.942,36.158c-15.635,0-32.342,9.687-32.342,36.871c0,9.85,2.25,19.409,6.359,27.176l7.98,211.778
		c0.074,10.679,7.98,18.712,18.447,18.712c10.473,0,18.381-8.042,18.449-18.73l7.094-211.771c4.106-7.766,6.352-17.32,6.352-27.165
		C96.281,45.845,79.576,36.158,63.942,36.158z M50.065,90.748C47.826,85.574,46.6,79.439,46.6,73.029
		c0-14.513,5.834-21.871,17.342-21.871c5.795,0,10.148,1.872,13.045,5.579c2.854,3.653,4.295,9.089,4.295,16.292
		c0,6.41-1.227,12.545-3.463,17.719H56.315H50.065z M67.836,311.827c-0.065,0.75-0.211,1.373-0.424,1.898
		c-0.002,0.004-0.004,0.008-0.005,0.012c-0.125,0.305-0.275,0.573-0.452,0.805c-0.01,0.012-0.017,0.025-0.025,0.036
		c-0.077,0.098-0.161,0.186-0.248,0.272c-0.047,0.045-0.095,0.087-0.144,0.128c-0.081,0.067-0.161,0.137-0.25,0.195
		c-0.134,0.087-0.276,0.165-0.429,0.23c-0.065,0.027-0.137,0.049-0.206,0.072c-0.127,0.044-0.259,0.083-0.397,0.113
		c-0.066,0.014-0.133,0.029-0.202,0.04c-0.211,0.034-0.43,0.06-0.667,0.066c-1.918,0.047-3.277-1.469-3.449-3.868
		c-0.006-0.094-6.834-181.551-6.834-181.551h6h13.811C73.914,130.276,67.842,311.743,67.836,311.827z M74.601,109.748l-0.185,5.528
		H59.388h-5.849l-0.359-9.528h21.555L74.601,109.748z"/>
	<g>
		<path style="fill:#FFFFFF;" d="M266.273,130.276h-6c0,0,6.834,181.457,6.834,181.551c0,2.422,1.793,3.868,3.449,3.868
			c1.17,0,2.373-0.718,3.002-1.967c-0.273-0.54-0.451-1.17-0.451-1.901C273.108,311.733,266.273,130.276,266.273,130.276z"/>
		<polygon style="fill:#FFFFFF;" points="280.771,109.748 280.904,105.748 259.35,105.748 259.707,115.276 265.558,115.276 
			265.35,109.748 		"/>
		<polygon style="fill:#FFFFFF;" points="283.16,58.474 283.57,50.364 256.025,58.592 258.504,90.748 268.118,90.748 
			266.025,63.592 		"/>
		<polygon style="fill:#FFAB97;" points="266.025,63.592 268.118,90.748 281.529,90.748 283.16,58.474 283.16,58.474 		"/>
		<polygon style="fill:none;" points="281.529,90.748 283.16,58.474 283.57,50.364 256.025,58.592 258.504,90.748 268.118,90.748 		
			"/>
		<polygon style="fill:#FF8269;" points="265.35,109.748 265.558,115.276 280.586,115.276 280.771,109.748 280.771,109.748 		"/>
		<polygon style="fill:none;" points="281.529,90.748 283.16,58.474 283.57,50.364 256.025,58.592 258.504,90.748 268.118,90.748 		
			"/>
		<polygon style="fill:none;" points="280.586,115.276 280.771,109.748 280.904,105.748 259.35,105.748 259.707,115.276 
			265.558,115.276 		"/>
		<path style="fill:#FF8269;" d="M273.559,313.728L273.559,313.728c0.272-0.54,0.447-1.17,0.447-1.901
			c0-0.084,6.076-181.551,6.076-181.551h-13.809c0,0,6.834,181.457,6.834,181.551C273.108,312.559,273.285,313.188,273.559,313.728z
			"/>
		<path style="fill:#C03A3A;" d="M296.227,34.24c-1.914-1.504-4.439-1.982-6.777-1.287L245.938,45.95
			c-3.383,1.011-5.604,4.243-5.332,7.763l3.465,44.946l8.039,213.324c0.074,10.679,7.98,18.712,18.447,18.712
			c10.473,0,18.381-8.042,18.449-18.73l7.15-213.434l2.93-58.014C299.209,38.085,298.143,35.744,296.227,34.24z M256.025,58.592
			l27.545-8.228l-0.41,8.109l-1.631,32.274h-13.411h-9.614L256.025,58.592z M259.35,105.748h21.555l-0.134,4l-0.185,5.528h-15.028
			h-5.851L259.35,105.748z M270.557,315.695c-1.656,0-3.449-1.446-3.449-3.868c0-0.094-6.834-181.551-6.834-181.551h6h13.809
			c0,0-6.076,181.467-6.076,181.551c0,0.732-0.176,1.361-0.447,1.901C272.93,314.978,271.727,315.695,270.557,315.695z"/>
	</g>
	<path style="fill:#FFFFFF;" d="M162.873,130.276h-6c0,0,6.834,181.457,6.834,181.551c0,2.422,1.818,3.868,3.449,3.868
		c1.128,0,2.356-0.724,2.997-1.985c-0.271-0.536-0.446-1.16-0.446-1.883C169.707,311.733,162.873,130.276,162.873,130.276z"/>
	<path style="fill:#FF8269;" d="M170.153,313.71L170.153,313.71c0.272-0.536,0.45-1.16,0.45-1.883
		c0-0.084,6.078-181.551,6.078-181.551h-13.809c0,0,6.834,181.457,6.834,181.551C169.707,312.55,169.882,313.174,170.153,313.71z"/>
	<polygon style="fill:#FF8269;" points="161.949,109.748 162.157,115.276 177.184,115.276 177.369,109.748 177.369,109.748 	"/>
	<path style="fill:#C03A3A;" d="M233.086,24.952C218.971,9.328,194.156,0,166.709,0c-27.447,0-52.262,9.328-66.375,24.953
		c-2.291,2.537-2.521,6.208-0.807,8.975l-0.002,0.001l41.215,66.581l7.969,211.474c0.074,10.679,7.98,18.712,18.447,18.712
		c10.473,0,18.381-8.042,18.447-18.73l7.084-211.469l41.209-66.567l-0.004-0.003C235.608,31.159,235.377,27.488,233.086,24.952z
		 M155.949,105.748h21.555l-0.135,4l-0.186,5.528h-15.026h-5.849L155.949,105.748z M170.604,311.827c0,0.723-0.178,1.347-0.45,1.883
		c-0.641,1.261-1.869,1.985-2.997,1.985c-1.631,0-3.449-1.446-3.449-3.868c0-0.094-6.834-181.551-6.834-181.551h6h13.809
		C176.682,130.276,170.604,311.743,170.604,311.827z M181.082,90.748H163.1h-10.762l-36.887-59.59
		C127.24,21.095,146.274,15,166.709,15c7.795,0,15.382,0.892,22.444,2.548c11.454,2.685,21.523,7.385,28.817,13.61L181.082,90.748z"
		/>
</g>
</svg>